<svg width="57" height="61" viewBox="0 0 57 61" fill="none" xmlns="http://www.w3.org/2000/svg">
<path fill-rule="evenodd" clip-rule="evenodd" d="M27.0584 43.3759L17.0516 37.5985V37.5827L0.0894354 27.7896C-0.361655 33.6291 0.884582 39.661 4.0342 45.1163C5.788 48.154 7.99172 50.77 10.5126 52.9286L27.0584 43.3759ZM13.0978 54.9087C20.8859 60.2271 30.9241 61.6866 40.0791 58.4479V39.3407L30.0741 45.117L30.0658 45.1122L13.0978 54.9087ZM43.0865 57.1966C43.7708 56.8675 44.4479 56.5101 45.1163 56.1242C49.8697 53.3798 53.5905 49.5337 56.1424 45.0947L56.1037 45.117L43.0889 37.6029L43.0865 37.6043V57.1966ZM56.1351 15.061C56.1315 15.0547 56.1278 15.0484 56.1242 15.0421C54.3723 12.0077 52.1715 9.39414 49.654 7.2368L33.1038 16.7921L43.0889 22.5569L56.1037 15.0429L56.1351 15.061ZM47.07 5.25605L30.0964 15.0557L30.0741 15.0429L20.0798 20.8131V1.71038C29.2383 -1.52948 39.2807 -0.0673972 47.07 5.25605ZM17.0723 2.96161C16.3879 3.2908 15.7107 3.64821 15.0421 4.0342C7.1258 8.60469 2.07347 16.2307 0.514776 24.5625L17.0516 34.1101V22.5614L17.0723 22.5494V2.96161Z" fill="#3E64FF"/>
</svg>
